<svg width="121" height="138" viewBox="0 0 121 138" fill="none" xmlns="http://www.w3.org/2000/svg">
<path d="M57.5078 2.91016H63.4569V18.4303H57.5078V2.91016Z" fill="#F19A17"/>
<mask id="mask0_525_27363" style="mask-type:alpha" maskUnits="userSpaceOnUse" x="57" y="2" width="7" height="17">
<path d="M57.5059 2.90967H63.4549V18.4298H57.5059V2.90967Z" fill="#6B4DE0"/>
</mask>
<g mask="url(#mask0_525_27363)">
<path d="M65.4379 4.36482C65.4379 7.31128 62.9964 9.69985 59.9846 9.69985C56.9728 9.69985 54.5312 7.31128 54.5312 4.36482C54.5312 1.41836 56.9728 -0.970215 59.9846 -0.970215C62.9964 -0.970215 65.4379 1.41836 65.4379 4.36482Z" fill="#C1630E"/>
</g>
<path d="M65.4386 4.85003C65.4386 7.52863 63.219 9.70006 60.481 9.70006C57.743 9.70006 55.5234 7.52863 55.5234 4.85003C55.5234 2.17143 57.743 0 60.481 0C63.219 0 65.4386 2.17143 65.4386 4.85003Z" fill="#D65682"/>
<mask id="mask1_525_27363" style="mask-type:alpha" maskUnits="userSpaceOnUse" x="0" y="15" width="121" height="123">
<path fill-rule="evenodd" clip-rule="evenodd" d="M60.4823 15.52C57.3434 15.5398 48.4101 16.5015 37.7868 20.1908C28.6925 23.2455 8.49979 27.5221 0.483893 20.1908C-0.739844 23.5654 -0.344678 31.9937 10.1949 40.5035C11.1877 38.3606 13.9369 34.7043 18.8397 33.9506C16.9583 36.0713 13.0878 41.0366 11.1096 45.0457C10.7032 46.0284 10.3046 47.1509 9.93093 48.3858C9.92547 48.4245 9.92049 48.4628 9.91602 48.5007L9.91762 48.4299C7.04339 57.9636 5.65633 74.1489 13.5466 84.4322C14.7405 85.9882 16.0229 87.3671 17.3796 88.5808C13.8981 97.6303 13.0201 108.512 21.5432 116.401L27.02 112.585C28.5421 116.667 30.8754 120.653 34.1184 124.254C41.5726 132.531 54.2732 137.741 60.4843 137.741V137.741C66.4025 137.74 79.395 132.53 86.8486 124.253C90.2371 120.491 92.6325 116.308 94.1471 112.034L100.414 116.401C109.15 108.316 108.009 97.0858 104.312 87.9074C105.402 86.8636 106.44 85.7074 107.418 84.4322C115.308 74.1489 113.921 57.9636 111.047 48.4299L111.049 48.5007C111.044 48.4628 111.039 48.4245 111.034 48.3858C110.66 47.1509 110.262 46.0284 109.855 45.0458C107.877 41.0366 104.006 36.0713 102.125 33.9506C107.028 34.7043 109.777 38.3606 110.77 40.5035C121.309 31.9937 121.705 23.5654 120.481 20.1908C112.465 27.5221 92.2723 23.2455 83.1779 20.1908C72.5546 16.5015 63.6213 15.5398 60.4824 15.52C60.4824 15.52 60.4824 15.52 60.4823 15.52Z" fill="#645CBB"/>
</mask>
<g mask="url(#mask1_525_27363)">
<path fill-rule="evenodd" clip-rule="evenodd" d="M20.553 116.401C7.10492 103.954 17.0615 84.0546 23.7208 75.6605L31.6142 89.2406H59.4925V89.2405H88.3628L96.2561 75.6605C102.915 84.0546 112.872 103.954 99.424 116.401L93.1569 112.034C91.6423 116.308 89.2469 120.491 85.8584 124.253C78.4048 132.529 65.4123 137.74 59.494 137.741V137.741C53.283 137.741 40.5824 132.53 33.1281 124.253C29.8852 120.653 27.5519 116.666 26.0298 112.585L20.553 116.401Z" fill="url(#paint0_linear_525_27363)"/>
<path d="M20.9855 116.492C7.62226 104.092 17.5161 84.2668 24.1334 75.9043L39.9743 103.227L20.9855 116.492Z" fill="#F19A16"/>
<path d="M100.089 116.492C113.452 104.092 103.558 84.2668 96.9408 75.9043L81.0999 103.227L100.089 116.492Z" fill="#F19A16"/>
<g filter="url(#filter0_d_525_27363)">
<path fill-rule="evenodd" clip-rule="evenodd" d="M60.3362 89.1706V89.1705H26.6432C22.6365 99.079 24.1761 113.349 33.9282 124.15C41.3933 132.418 54.1118 137.623 60.3337 137.624V137.624C66.2607 137.624 79.2756 132.419 86.7417 124.15C96.4938 113.349 98.0334 99.0791 94.0267 89.1706H60.3362Z" fill="#F5AC3D"/>
</g>
<g filter="url(#filter1_d_525_27363)">
<path fill-rule="evenodd" clip-rule="evenodd" d="M54.9599 136.616C29.9183 114.877 32.033 101.724 34.7823 91.7937C38.2747 79.1794 52.3193 78.8159 59.8652 78.6206C60.0953 78.6146 60.3194 78.6088 60.537 78.6028V78.6022C60.5407 78.6023 60.5444 78.6024 60.5481 78.6025C60.5581 78.6022 60.5681 78.602 60.5781 78.6017V78.6033C60.7953 78.6094 61.019 78.6152 61.2487 78.6212C68.7817 78.8172 82.8022 79.1821 86.2887 91.8445C89.0332 101.813 91.1631 114.959 66.1644 136.781L64.8426 137.12L63.4709 137.472C62.8388 137.579 62.5028 137.624 61.9193 137.687L61.1147 137.74H60.537V137.515H59.9994L59.1935 137.462C58.6089 137.399 58.2724 137.354 57.6392 137.247L56.2235 136.953L54.9599 136.616Z" fill="#FCD97E"/>
</g>
<path fill-rule="evenodd" clip-rule="evenodd" d="M60.5437 -2.91003C57.4018 -2.88527 48.4594 -1.67654 37.8251 2.96023C28.7215 6.79943 8.50841 12.1743 0.484384 2.96023C-0.735773 7.18486 -0.348118 17.711 10.0811 28.3632C11.1705 25.5551 13.8449 21.2183 18.4422 20.2891C16.8848 22.5973 13.9434 27.508 11.8881 32.0984C8.05955 41.4561 3.9842 68.0299 13.5603 83.6996C25.2043 102.753 45.2612 100.674 60.5437 91.3857V-2.91003Z" fill="#C1630E"/>
<path fill-rule="evenodd" clip-rule="evenodd" d="M60.4211 -2.91016C63.563 -2.88539 72.5055 -1.67666 83.1397 2.9601C92.2433 6.7993 112.456 12.1742 120.48 2.9601C121.701 7.18476 121.313 17.711 110.884 28.3632C109.794 25.5551 107.12 21.2186 102.523 20.2895C104.081 22.5985 107.024 27.512 109.079 32.1038C112.907 41.4664 116.979 68.0329 107.405 83.6995C95.7605 102.753 75.7037 100.674 60.4211 91.3855V-2.91016Z" fill="#C1630E"/>
<path fill-rule="evenodd" clip-rule="evenodd" d="M60.5438 15.1914C57.4018 15.2112 48.4594 16.1778 37.8251 19.8855C28.7215 22.9555 8.50841 27.2535 0.484384 19.8855C-0.747886 23.2973 -0.340261 31.8485 10.3947 40.4526C11.3913 38.2681 13.8234 34.9117 17.9957 34.191C15.7654 37.016 10.4162 44.8529 9.99805 48.8443L10.0154 47.9773C7.07957 57.5176 5.58216 74.0091 13.5603 84.4484C25.2043 99.6845 45.2612 98.0219 60.5438 90.5945V15.1914Z" fill="#F9AC3A"/>
<path fill-rule="evenodd" clip-rule="evenodd" d="M60.4211 15.1914C63.563 15.2112 72.5055 16.1778 83.1397 19.8855C92.2433 22.9555 112.456 27.2535 120.48 19.8855C121.711 23.2918 121.306 31.821 110.622 40.4111C109.33 38.6097 107.158 36.6589 103.969 36.1448C105.228 37.6332 107.481 40.6121 109.28 43.5947C113.045 51.416 116.812 72.1394 107.405 84.4484C95.7605 99.6845 75.7037 98.0219 60.4211 90.5945V15.1914Z" fill="#F9AC3A"/>
<g filter="url(#filter2_d_525_27363)">
<path fill-rule="evenodd" clip-rule="evenodd" d="M68.2655 15.5015C80.4514 23.8168 103.148 42.6726 98.9703 52.8174C94.8086 62.9224 71.6304 65.8908 60.4299 66.1193V66.122C60.4076 66.1215 60.3853 66.1211 60.3629 66.1207C60.3414 66.1211 60.32 66.1215 60.2986 66.1219V66.1194C49.0981 65.8909 25.92 62.9225 21.7583 52.8174C17.5891 42.6942 40.1808 23.8969 52.3852 15.5546C54.8099 15.382 56.8807 15.2787 58.5395 15.2285L60.2986 15.1931V15.1904L60.3918 15.1923L60.4299 15.192V15.1931L64.1621 15.2682L68.2655 15.5015Z" fill="#FFB94F"/>
</g>
<g filter="url(#filter3_d_525_27363)">
<path fill-rule="evenodd" clip-rule="evenodd" d="M39.2137 44.0504C36.9341 35.966 49.318 20.9396 55.9669 14.313L58.2058 14.1272L60.239 14.0674V14.0664L60.2653 14.0666L60.3138 14.0652V14.068L61.3245 14.0977C62.2198 14.1384 63.3306 14.22 64.627 14.3547C71.2857 21.0021 83.6139 35.9833 81.339 44.051C79.0687 52.1025 66.4262 54.4686 60.3138 54.6514V54.653C60.3048 54.6527 60.2957 54.6525 60.2867 54.6522C60.2708 54.6527 60.2548 54.6531 60.239 54.6535V54.6508C54.1265 54.468 41.4841 52.1019 39.2137 44.0504Z" fill="#FCD97E"/>
</g>
<g filter="url(#filter4_d_525_27363)">
<path fill-rule="evenodd" clip-rule="evenodd" d="M60.3074 81.0958C55.4974 86.4609 48.4548 89.8455 40.6081 89.8455C26.1113 89.8455 14.3594 78.2932 14.3594 64.0427C14.3594 49.7923 26.1113 38.24 40.6081 38.24C48.4548 38.24 55.4974 41.6246 60.3074 46.9896C65.1174 41.6246 72.16 38.24 80.0067 38.24C94.5035 38.24 106.255 49.7923 106.255 64.0427C106.255 78.2932 94.5035 89.8455 80.0067 89.8455C72.16 89.8455 65.1174 86.4609 60.3074 81.0958Z" fill="#FFF9F0"/>
</g>
<path fill-rule="evenodd" clip-rule="evenodd" d="M80.4519 59.7263C85.0172 59.7263 88.7182 56.1041 88.7182 51.6358C88.7182 50.8808 88.6125 50.1499 88.4148 49.4565C92.4396 52.0236 95.1002 56.4678 95.1002 61.5202C95.1002 69.4668 88.5181 75.9089 80.3987 75.9089C72.2793 75.9089 65.6973 69.4668 65.6973 61.5202C65.6973 56.4135 68.4153 51.9282 72.5128 49.3745C72.2997 50.0922 72.1855 50.8509 72.1855 51.6358C72.1855 56.1041 75.8865 59.7263 80.4519 59.7263Z" fill="#0B1640"/>
<path fill-rule="evenodd" clip-rule="evenodd" d="M39.7865 60.233C44.321 60.233 47.9969 56.6353 47.9969 52.1973C47.9969 51.448 47.8921 50.7227 47.6961 50.0346C51.6928 52.5844 54.3348 56.998 54.3348 62.0156C54.3348 69.9085 47.7973 76.307 39.7328 76.307C31.6684 76.307 25.1309 69.9085 25.1309 62.0156C25.1309 56.9432 27.8309 52.488 31.9011 49.9517C31.6896 50.6643 31.5762 51.4179 31.5762 52.1973C31.5762 56.6353 35.2521 60.233 39.7865 60.233Z" fill="#0B1640"/>
<path fill-rule="evenodd" clip-rule="evenodd" d="M60.2785 68.5541L56.1113 72.4418L60.2785 77.7931V68.5541ZM60.2801 68.5542L64.4473 72.4419L60.2801 77.7932V68.5542Z" fill="#0B1640"/>
</g>
<defs>
<filter id="filter0_d_525_27363" x="17.426" y="82.4744" width="85.8178" height="62.7696" filterUnits="userSpaceOnUse" color-interpolation-filters="sRGB">
<feFlood flood-opacity="0" result="BackgroundImageFix"/>
<feColorMatrix in="SourceAlpha" type="matrix" values="0 0 0 0 0 0 0 0 0 0 0 0 0 0 0 0 0 0 127 0" result="hardAlpha"/>
<feOffset dy="0.461803"/>
<feGaussianBlur stdDeviation="3.57897"/>
<feComposite in2="hardAlpha" operator="out"/>
<feColorMatrix type="matrix" values="0 0 0 0 0.174465 0 0 0 0 0.118924 0 0 0 0 0.570833 0 0 0 0.15 0"/>
<feBlend mode="normal" in2="BackgroundImageFix" result="effect1_dropShadow_525_27363"/>
<feBlend mode="normal" in="SourceGraphic" in2="effect1_dropShadow_525_27363" result="shape"/>
</filter>
<filter id="filter1_d_525_27363" x="28.6927" y="75.1382" width="63.6868" height="68.144" filterUnits="userSpaceOnUse" color-interpolation-filters="sRGB">
<feFlood flood-opacity="0" result="BackgroundImageFix"/>
<feColorMatrix in="SourceAlpha" type="matrix" values="0 0 0 0 0 0 0 0 0 0 0 0 0 0 0 0 0 0 127 0" result="hardAlpha"/>
<feOffset dy="1.03906"/>
<feGaussianBlur stdDeviation="2.25129"/>
<feComposite in2="hardAlpha" operator="out"/>
<feColorMatrix type="matrix" values="0 0 0 0 0.313726 0 0 0 0 0.0627451 0 0 0 0 0.258824 0 0 0 0.1 0"/>
<feBlend mode="normal" in2="BackgroundImageFix" result="effect1_dropShadow_525_27363"/>
<feBlend mode="normal" in="SourceGraphic" in2="effect1_dropShadow_525_27363" result="shape"/>
</filter>
<filter id="filter2_d_525_27363" x="14.7867" y="9.18699" width="91.1551" height="63.862" filterUnits="userSpaceOnUse" color-interpolation-filters="sRGB">
<feFlood flood-opacity="0" result="BackgroundImageFix"/>
<feColorMatrix in="SourceAlpha" type="matrix" values="0 0 0 0 0 0 0 0 0 0 0 0 0 0 0 0 0 0 127 0" result="hardAlpha"/>
<feOffset dy="0.461803"/>
<feGaussianBlur stdDeviation="3.23262"/>
<feComposite in2="hardAlpha" operator="out"/>
<feColorMatrix type="matrix" values="0 0 0 0 0.45 0 0 0 0 0.345525 0 0 0 0 0.076875 0 0 0 0.22 0"/>
<feBlend mode="normal" in2="BackgroundImageFix" result="effect1_dropShadow_525_27363"/>
<feBlend mode="normal" in="SourceGraphic" in2="effect1_dropShadow_525_27363" result="shape"/>
</filter>
<filter id="filter3_d_525_27363" x="35.1276" y="10.7171" width="50.2975" height="48.2081" filterUnits="userSpaceOnUse" color-interpolation-filters="sRGB">
<feFlood flood-opacity="0" result="BackgroundImageFix"/>
<feColorMatrix in="SourceAlpha" type="matrix" values="0 0 0 0 0 0 0 0 0 0 0 0 0 0 0 0 0 0 127 0" result="hardAlpha"/>
<feOffset dy="0.461803"/>
<feGaussianBlur stdDeviation="1.90494"/>
<feComposite in2="hardAlpha" operator="out"/>
<feColorMatrix type="matrix" values="0 0 0 0 0.479167 0 0 0 0 0.295486 0 0 0 0 0.0798611 0 0 0 0.15 0"/>
<feBlend mode="normal" in2="BackgroundImageFix" result="effect1_dropShadow_525_27363"/>
<feBlend mode="normal" in="SourceGraphic" in2="effect1_dropShadow_525_27363" result="shape"/>
</filter>
<filter id="filter4_d_525_27363" x="9.97225" y="33.8529" width="100.671" height="60.3797" filterUnits="userSpaceOnUse" color-interpolation-filters="sRGB">
<feFlood flood-opacity="0" result="BackgroundImageFix"/>
<feColorMatrix in="SourceAlpha" type="matrix" values="0 0 0 0 0 0 0 0 0 0 0 0 0 0 0 0 0 0 127 0" result="hardAlpha"/>
<feOffset/>
<feGaussianBlur stdDeviation="2.19356"/>
<feComposite in2="hardAlpha" operator="out"/>
<feColorMatrix type="matrix" values="0 0 0 0 0.3125 0 0 0 0 0.0963542 0 0 0 0 0.277917 0 0 0 0.07 0"/>
<feBlend mode="normal" in2="BackgroundImageFix" result="effect1_dropShadow_525_27363"/>
<feBlend mode="normal" in="SourceGraphic" in2="effect1_dropShadow_525_27363" result="shape"/>
</filter>
<linearGradient id="paint0_linear_525_27363" x1="73.1666" y1="71.197" x2="78.2793" y2="113" gradientUnits="userSpaceOnUse">
<stop stop-color="#EC8BCD"/>
<stop offset="0.3725" stop-color="#C07BCD"/>
<stop offset="0.4914" stop-color="#B176CD"/>
<stop offset="0.9988" stop-color="#7350D9"/>
</linearGradient>
</defs>
</svg>
